<?xml version="1.0" standalone="no"?>
<!DOCTYPE svg PUBLIC "-//W3C//DTD SVG 20010904//EN"
 "http://www.w3.org/TR/2001/REC-SVG-20010904/DTD/svg10.dtd">
<svg version="1.0" xmlns="http://www.w3.org/2000/svg"
 width="512.000000pt" height="512.000000pt" viewBox="0 0 512.000000 512.000000"
 preserveAspectRatio="xMidYMid meet">
<metadata>
Created by potrace 1.11, written by Peter Selinger 2001-2013
</metadata>
<g transform="translate(0.000000,512.000000) scale(0.100000,-0.100000)"
fill="#000000" stroke="none">
<path d="M397 5104 c-99 -24 -167 -62 -243 -138 -77 -78 -114 -144 -139 -248
-22 -95 -22 -4221 0 -4316 25 -104 62 -170 139 -248 78 -77 144 -114 248 -139
95 -22 4221 -22 4316 0 104 25 170 62 248 139 77 78 114 144 139 248 22 95 22
4221 0 4316 -25 104 -62 170 -139 248 -78 77 -144 114 -248 139 -92 22 -4231
21 -4321 -1z m1338 -795 c412 -51 687 -300 781 -709 71 -311 49 -738 -61
-1185 -184 -745 -526 -1305 -920 -1502 -180 -91 -313 -117 -580 -116 -229 1
-362 15 -422 44 -53 26 -79 84 -69 157 5 41 703 2793 742 2926 l14 49 -63 -7
c-34 -3 -101 -9 -148 -12 -86 -7 -87 -7 -105 21 -16 25 -17 35 -5 128 15 118
30 153 75 172 29 12 136 29 241 38 100 9 439 6 520 -4z m2420 -44 c256 -64
414 -219 481 -470 26 -98 27 -433 2 -547 -25 -112 -72 -226 -130 -315 -65
-101 -232 -266 -320 -317 l-68 -38 38 -28 c96 -70 155 -161 188 -290 26 -102
15 -319 -25 -473 -123 -485 -381 -785 -783 -912 -154 -49 -238 -57 -611 -62
-191 -3 -359 -2 -373 1 -41 11 -74 53 -74 97 0 21 168 701 374 1511 206 810
378 1485 381 1501 7 27 7 27 -43 27 -81 0 -148 19 -182 50 -35 33 -37 57 -14
138 23 81 40 110 77 133 31 19 46 20 522 16 427 -3 499 -6 560 -22z"/>
<path d="M1596 3918 c-10 -35 -174 -674 -365 -1421 -272 -1063 -345 -1360
-334 -1364 8 -3 82 -3 166 -1 138 4 159 7 222 33 186 75 341 233 503 515 182
318 328 794 387 1269 23 180 16 450 -14 563 -54 206 -150 346 -279 412 -62 31
-160 56 -223 56 l-47 0 -16 -62z"/>
<path d="M3487 3368 c-80 -320 -144 -585 -141 -588 3 -3 117 -5 252 -5 237 0
249 1 306 24 93 37 168 120 239 261 82 163 110 276 111 450 1 116 -2 144 -22
201 -28 83 -70 149 -114 182 -64 49 -105 57 -302 57 l-182 0 -147 -582z"/>
<path d="M3241 2393 c-51 -190 -318 -1249 -316 -1251 9 -9 378 19 430 33 156
41 321 161 440 319 74 99 135 249 166 409 40 203 16 342 -72 428 -80 78 -176
98 -466 99 l-172 0 -10 -37z"/>
</g>
</svg>
